<?xml version="1.0" encoding="UTF-8" standalone="no"?>
<!DOCTYPE svg PUBLIC "-//W3C//DTD SVG 1.1//EN" "http://www.w3.org/Graphics/SVG/1.1/DTD/svg11.dtd">
<svg width="100%" height="100%" viewBox="0 0 1000 1000" version="1.1" xmlns="http://www.w3.org/2000/svg" xmlns:xlink="http://www.w3.org/1999/xlink" xml:space="preserve" xmlns:serif="http://www.serif.com/" style="fill-rule:evenodd;clip-rule:evenodd;stroke-miterlimit:10;">
    <g id="Layer-2" serif:id="Layer 2" transform="matrix(2.62127,0,0,2.62127,-277.879,-102.458)">
        <g transform="matrix(0,1,1,0,288.625,178.649)">
            <circle cx="5.687" cy="0" r="5.687" style="fill:white;stroke:white;stroke-width:1px;"/>
        </g>
        <g transform="matrix(0,1,1,0,265.877,265.379)">
            <path d="M5.687,-5.687C2.546,-5.687 0,-3.141 0,-0C0,3.141 2.546,5.687 5.687,5.687C8.828,5.687 11.374,3.141 11.374,-0C11.374,-3.141 8.828,-5.687 5.687,-5.687" style="fill:white;fill-rule:nonzero;stroke:white;stroke-width:0.14px;stroke-linejoin:round;stroke-miterlimit:2;"/>
        </g>
        <g transform="matrix(0,1,1,0,265.877,265.379)">
            <circle cx="5.687" cy="0" r="5.687" style="fill:white;stroke:white;stroke-width:1px;"/>
        </g>
        <g transform="matrix(0,1,1,0,201.185,219.882)">
            <circle cx="5.687" cy="0" r="5.687" style="fill:white;stroke:white;stroke-width:1px;"/>
        </g>
        <g transform="matrix(0,1,1,0,204.028,150.214)">
            <circle cx="5.687" cy="0" r="5.687" style="fill:white;stroke:white;stroke-width:1px;"/>
        </g>
        <g transform="matrix(1,0,0,1,150,142.393)">
            <path d="M0,0C0,-3.141 2.546,-5.687 5.687,-5.687C7.167,-5.687 8.274,-5.085 8.613,-4.878C10.247,-3.88 11.4,-2.001 11.374,0C11.339,2.804 8.994,5.687 5.687,5.687C3.727,5.687 1.999,4.696 0.976,3.187C0.36,2.278 0,1.181 0,0Z" style="fill:white;fill-rule:nonzero;stroke:white;stroke-width:1px;"/>
        </g>
        <g transform="matrix(0,1,1,0,215.403,45.0002)">
            <path d="M5.687,-5.687C2.546,-5.687 0,-3.141 0,-0C0,3.141 2.546,5.687 5.687,5.687C8.828,5.687 11.374,3.141 11.374,-0C11.374,-3.141 8.828,-5.687 5.687,-5.687" style="fill:white;fill-rule:nonzero;stroke:white;stroke-width:0.14px;stroke-linejoin:round;stroke-miterlimit:2;"/>
        </g>
        <g transform="matrix(0,1,1,0,215.403,45.0002)">
            <circle cx="5.687" cy="0" r="5.687" style="fill:white;stroke:white;stroke-width:1px;"/>
        </g>
        <g transform="matrix(0,1,1,0,175.592,268.934)">
            <circle cx="5.687" cy="0" r="5.687" style="fill:white;stroke:white;stroke-width:1px;"/>
        </g>
        <g transform="matrix(0,1,1,0,231.043,310.166)">
            <circle cx="5.687" cy="0" r="5.687" style="fill:white;stroke:white;stroke-width:1px;"/>
        </g>
        <g transform="matrix(0,1,1,0,221.09,362.773)">
            <circle cx="5.687" cy="0" r="5.687" style="fill:white;stroke:white;stroke-width:1px;"/>
        </g>
        <g transform="matrix(0,-1,-1,0,334.123,265.379)">
            <circle cx="-5.687" cy="0" r="5.687" style="fill:white;stroke:white;stroke-width:1px;"/>
        </g>
        <g transform="matrix(0,-1,-1,0,444.313,136.706)">
            <path d="M-5.687,-5.687C-2.546,-5.687 -0,-3.141 -0,-0C-0,3.141 -2.546,5.687 -5.687,5.687C-8.828,5.687 -11.374,3.141 -11.374,-0C-11.374,-3.141 -8.828,-5.687 -5.687,-5.687" style="fill:white;fill-rule:nonzero;stroke:white;stroke-width:0.14px;stroke-linejoin:round;stroke-miterlimit:2;"/>
        </g>
        <g transform="matrix(0,-1,-1,0,444.313,136.706)">
            <circle cx="-5.687" cy="0" r="5.687" style="fill:white;stroke:white;stroke-width:1px;"/>
        </g>
        <g transform="matrix(0,-1,-1,0,384.597,45.0002)">
            <circle cx="-5.687" cy="0" r="5.687" style="fill:white;stroke:white;stroke-width:1px;"/>
        </g>
        <g transform="matrix(0,-1,-1,0,424.408,268.934)">
            <path d="M-5.687,-5.687C-2.546,-5.687 -0,-3.141 -0,-0C-0,3.141 -2.546,5.687 -5.687,5.687C-8.828,5.687 -11.374,3.141 -11.374,-0C-11.374,-3.141 -8.828,-5.687 -5.687,-5.687" style="fill:white;fill-rule:nonzero;stroke:white;stroke-width:0.14px;stroke-linejoin:round;stroke-miterlimit:2;"/>
        </g>
        <g transform="matrix(0,-1,-1,0,424.408,268.934)">
            <circle cx="-5.687" cy="0" r="5.687" style="fill:white;stroke:white;stroke-width:1px;"/>
        </g>
        <g transform="matrix(0,-1,-1,0,368.958,310.166)">
            <path d="M-5.687,-5.687C-2.546,-5.687 -0,-3.141 -0,-0C-0,3.141 -2.546,5.687 -5.687,5.687C-8.828,5.687 -11.374,3.141 -11.374,-0C-11.374,-3.141 -8.828,-5.687 -5.687,-5.687" style="fill:white;fill-rule:nonzero;stroke:white;stroke-width:0.14px;stroke-linejoin:round;stroke-miterlimit:2;"/>
        </g>
        <g transform="matrix(0,-1,-1,0,368.958,310.166)">
            <circle cx="-5.687" cy="0" r="5.687" style="fill:white;stroke:white;stroke-width:1px;"/>
        </g>
        <g transform="matrix(0,-1,-1,0,378.91,362.773)">
            <path d="M-5.687,-5.687C-2.546,-5.687 -0,-3.141 -0,-0C-0,3.141 -2.546,5.687 -5.687,5.687C-8.828,5.687 -11.374,3.141 -11.374,-0C-11.374,-3.141 -8.828,-5.687 -5.687,-5.687" style="fill:white;fill-rule:nonzero;stroke:white;stroke-width:0.14px;stroke-linejoin:round;stroke-miterlimit:2;"/>
        </g>
        <g transform="matrix(0,-1,-1,0,378.91,362.773)">
            <circle cx="-5.687" cy="0" r="5.687" style="fill:white;stroke:white;stroke-width:1px;"/>
        </g>
        <g transform="matrix(0,1,1,0,300,352.82)">
            <path d="M5.687,-5.687C2.546,-5.687 0,-3.141 0,-0C0,3.141 2.546,5.687 5.687,5.687C8.828,5.687 11.374,3.141 11.374,-0C11.374,-3.141 8.828,-5.687 5.687,-5.687" style="fill:white;fill-rule:nonzero;stroke:white;stroke-width:0.14px;stroke-linejoin:round;stroke-miterlimit:2;"/>
        </g>
        <g transform="matrix(0,1,1,0,300,352.82)">
            <circle cx="5.687" cy="0" r="5.687" style="fill:white;stroke:white;stroke-width:1px;"/>
        </g>
        <g transform="matrix(0,1,1,0,300,296.659)">
            <path d="M5.687,-5.687C2.546,-5.687 0,-3.141 0,-0C0,3.141 2.546,5.687 5.687,5.687C8.828,5.687 11.374,3.141 11.374,-0C11.374,-3.141 8.828,-5.687 5.687,-5.687" style="fill:white;fill-rule:nonzero;stroke:white;stroke-width:0.14px;stroke-linejoin:round;stroke-miterlimit:2;"/>
        </g>
        <g transform="matrix(0,1,1,0,300,296.659)">
            <circle cx="5.687" cy="0" r="5.687" style="fill:white;stroke:white;stroke-width:1px;"/>
        </g>
        <g transform="matrix(-0.960351,-0.278795,-0.278795,0.960351,296.955,282.978)">
            <path d="M-1.585,-11.148C1.555,-11.149 4.102,-8.602 4.101,-5.462C4.102,-2.321 1.556,0.226 -1.585,0.225C-4.726,0.226 -7.272,-2.32 -7.272,-5.462C-7.273,-8.602 -4.726,-11.148 -1.585,-11.148" style="fill:white;fill-rule:nonzero;stroke:white;stroke-width:0.14px;stroke-linejoin:round;stroke-miterlimit:2;"/>
        </g>
        <g transform="matrix(-0.960351,-0.278795,-0.278795,0.960351,296.955,282.978)">
            <ellipse cx="-1.585" cy="-5.461" rx="5.687" ry="5.688" style="fill:white;stroke:white;stroke-width:1px;"/>
        </g>
        <g transform="matrix(0,1,1,0,300,403.294)">
            <path d="M5.687,-5.687C2.546,-5.687 0,-3.141 0,-0C0,3.141 2.546,5.687 5.687,5.687C8.828,5.687 11.374,3.141 11.374,-0C11.374,-3.141 8.828,-5.687 5.687,-5.687" style="fill:white;fill-rule:nonzero;stroke:white;stroke-width:0.14px;stroke-linejoin:round;stroke-miterlimit:2;"/>
        </g>
        <g transform="matrix(0,1,1,0,300,403.294)">
            <circle cx="5.687" cy="0" r="5.687" style="fill:white;stroke:white;stroke-width:1px;"/>
        </g>
        <g transform="matrix(0.904486,-0.426502,-0.426502,-0.904486,214.153,242.246)">
            <path d="M-4.617,20.616L92.058,20.616" style="fill:none;fill-rule:nonzero;stroke:white;stroke-width:4px;"/>
        </g>
        <g transform="matrix(0.988858,-0.148859,-0.148859,-0.988858,192.371,274.855)">
            <path d="M-16.556,2.729C-5.686,17.628 5.183,32.526 16.052,47.425C5.183,77.098 -5.687,106.772 -16.556,136.446C-1.292,129.595 13.971,122.745 29.235,115.893C38.205,150.009 47.175,184.126 56.145,218.242" style="fill:none;fill-rule:nonzero;stroke:white;stroke-width:4px;"/>
        </g>
        <g transform="matrix(0.545676,-0.837996,-0.837996,-0.545676,207.677,146.582)">
            <path d="M-24.859,45.853L84.575,45.853" style="fill:none;fill-rule:nonzero;stroke:white;stroke-width:4px;"/>
        </g>
        <g transform="matrix(0.148859,0.988858,0.988858,-0.148859,229.535,188.824)">
            <path d="M-56.906,-66.114L76.811,-66.114" style="fill:none;fill-rule:nonzero;stroke:white;stroke-width:4px;"/>
        </g>
        <g transform="matrix(-0.999226,0.0393453,0.0393453,0.999226,175.698,276.396)">
            <path d="M-90.319,-1.777L0.035,-1.778" style="fill:none;fill-rule:nonzero;stroke:white;stroke-width:4px;"/>
        </g>
        <g transform="matrix(0.613937,-0.789355,-0.789355,-0.613937,255.443,320.956)">
            <path d="M-10.952,22.394L45.786,22.394" style="fill:none;fill-rule:nonzero;stroke:white;stroke-width:4px;"/>
        </g>
        <g transform="matrix(0.185898,-0.982569,-0.982569,-0.185898,250.986,351.936)">
            <path d="M-21.794,26.304L31.747,26.304" style="fill:none;fill-rule:nonzero;stroke:white;stroke-width:4px;"/>
        </g>
        <g transform="matrix(-0.436276,-0.899813,-0.899813,0.436276,230.635,280.601)">
            <path d="M-74.893,46.92L29.395,46.92" style="fill:none;fill-rule:nonzero;stroke:white;stroke-width:4px;"/>
        </g>
        <g transform="matrix(0,-1,-1,0,325.237,383.744)">
            <path d="M-25.237,25.237L25.237,25.237" style="fill:none;fill-rule:nonzero;stroke:white;stroke-width:4px;"/>
        </g>
        <g transform="matrix(-0.889569,-0.456802,-0.456802,0.889569,234.702,352.674)">
            <path d="M-83.808,20.261L4.898,20.261" style="fill:none;fill-rule:nonzero;stroke:white;stroke-width:4px;"/>
        </g>
        <g transform="matrix(-0.595079,-0.803667,-0.803667,0.595079,282.426,306.999)">
            <path d="M-92.418,46.564L23.461,46.564" style="fill:none;fill-rule:nonzero;stroke:white;stroke-width:4px;"/>
        </g>
        <g transform="matrix(0.850451,0.526054,0.526054,-0.850451,247.418,300.905)">
            <path d="M-6.063,-21.327L75.02,-21.327" style="fill:none;fill-rule:nonzero;stroke:white;stroke-width:4px;"/>
        </g>
        <g transform="matrix(0.981351,-0.192223,-0.192223,-0.981351,232.984,322.355)">
            <path d="M-0.655,6.754L69.612,6.754" style="fill:none;fill-rule:nonzero;stroke:white;stroke-width:4px;"/>
        </g>
        <g transform="matrix(0.802463,0.596702,0.596702,-0.802463,193.371,262.15)">
            <path d="M-6.825,-20.616L62.275,-20.616" style="fill:none;fill-rule:nonzero;stroke:white;stroke-width:4px;"/>
        </g>
        <g transform="matrix(-0.737148,-0.675731,-0.675731,0.737148,280.93,263.648)">
            <path d="M-40.207,15.64L6.084,15.64" style="fill:none;fill-rule:nonzero;stroke:white;stroke-width:4px;"/>
        </g>
        <g transform="matrix(0,-1,-1,0,312.086,290.26)">
            <path d="M-12.086,12.086L12.086,12.086" style="fill:none;fill-rule:nonzero;stroke:white;stroke-width:4px;"/>
        </g>
        <g transform="matrix(-0.120327,-0.992734,-0.992734,0.120327,340.207,219.965)">
            <path d="M-52.95,46.92L41.576,46.92" style="fill:none;fill-rule:nonzero;stroke:white;stroke-width:4px;"/>
        </g>
        <g transform="matrix(-0.946229,-0.323498,-0.323498,0.946229,210.865,143.212)">
            <path d="M-85.538,14.218L2.363,14.218" style="fill:none;fill-rule:nonzero;stroke:white;stroke-width:4px;"/>
        </g>
        <g transform="matrix(0.0407882,-0.999168,-0.999168,-0.0407882,237.354,193.576)">
            <path d="M-33.441,34.834L36.285,34.834" style="fill:none;fill-rule:nonzero;stroke:white;stroke-width:4px;"/>
        </g>
        <g transform="matrix(0.120327,-0.992734,-0.992734,-0.120327,351.581,242.547)">
            <path d="M-41.576,46.92L52.95,46.92" style="fill:none;fill-rule:nonzero;stroke:white;stroke-width:4px;"/>
        </g>
        <g transform="matrix(0.238788,-0.971072,-0.971072,-0.238788,316.105,248.411)">
            <path d="M-33.993,43.365L55.32,43.365" style="fill:none;fill-rule:nonzero;stroke:white;stroke-width:4px;"/>
        </g>
        <g transform="matrix(0.737148,-0.675731,-0.675731,-0.737148,315.053,309.764)">
            <path d="M-6.084,15.64L40.207,15.64" style="fill:none;fill-rule:nonzero;stroke:white;stroke-width:4px;"/>
        </g>
        <g transform="matrix(-0.253714,-0.967279,-0.967279,0.253714,361.809,205.697)">
            <path d="M-56.206,43.365L33.457,43.365" style="fill:none;fill-rule:nonzero;stroke:white;stroke-width:4px;"/>
        </g>
        <g transform="matrix(1,0,0,1,288.626,184.337)">
            <path d="M0,0L22.749,0" style="fill:none;fill-rule:nonzero;stroke:white;stroke-width:4px;"/>
        </g>
        <g transform="matrix(0.904486,0.426502,0.426502,-0.904486,324.343,167.659)">
            <path d="M-4.617,-20.616L92.058,-20.616" style="fill:none;fill-rule:nonzero;stroke:white;stroke-width:4px;"/>
        </g>
        <g transform="matrix(0.947884,-0.318617,-0.318617,-0.947884,318.109,197.073)">
            <path d="M-2.326,14.218L86.923,14.218" style="fill:none;fill-rule:nonzero;stroke:white;stroke-width:4px;"/>
        </g>
        <g transform="matrix(0.452384,0.891823,0.891823,-0.452384,427.501,227.904)">
            <path d="M-15.06,-24.526L39.942,-24.526" style="fill:none;fill-rule:nonzero;stroke:white;stroke-width:4px;"/>
        </g>
        <g transform="matrix(0.999504,0.031485,0.031485,-0.999504,334.19,269.646)">
            <path d="M-0.022,-1.422L90.306,-1.422" style="fill:none;fill-rule:nonzero;stroke:white;stroke-width:4px;"/>
        </g>
        <g transform="matrix(0.802463,-0.596702,-0.596702,-0.802463,386.736,328.324)">
            <path d="M-6.825,20.616L62.275,20.616" style="fill:none;fill-rule:nonzero;stroke:white;stroke-width:4px;"/>
        </g>
        <g transform="matrix(0.595079,-0.803667,-0.803667,-0.595079,351.383,417.835)">
            <path d="M-23.461,46.564L92.418,46.564" style="fill:none;fill-rule:nonzero;stroke:white;stroke-width:4px;"/>
        </g>
        <g transform="matrix(-0.889569,0.456802,0.456802,0.889569,313.612,424.766)">
            <path d="M-83.808,-20.261L4.898,-20.261" style="fill:none;fill-rule:nonzero;stroke:white;stroke-width:4px;"/>
        </g>
        <g transform="matrix(0.850451,-0.526054,-0.526054,-0.850451,316.375,373.455)">
            <path d="M-6.063,21.327L75.02,21.327" style="fill:none;fill-rule:nonzero;stroke:white;stroke-width:4px;"/>
        </g>
        <g transform="matrix(-0.185898,-0.982569,-0.982569,0.185898,398.853,332.377)">
            <path d="M-31.747,26.304L21.794,26.304" style="fill:none;fill-rule:nonzero;stroke:white;stroke-width:4px;"/>
        </g>
        <g transform="matrix(0.613937,0.789355,0.789355,-0.613937,358.524,265.963)">
            <path d="M-10.952,-22.394L45.786,-22.394" style="fill:none;fill-rule:nonzero;stroke:white;stroke-width:4px;"/>
        </g>
        <g transform="matrix(0.981351,0.192223,0.192223,-0.981351,301.941,295.844)">
            <path d="M-0.655,-6.754L69.612,-6.754" style="fill:none;fill-rule:nonzero;stroke:white;stroke-width:4px;"/>
        </g>
        <g transform="matrix(0.430731,-0.90248,-0.90248,-0.430731,434.002,361.96)">
            <path d="M-29.596,46.92L74.383,46.919" style="fill:none;fill-rule:nonzero;stroke:white;stroke-width:4px;"/>
        </g>
        <g transform="matrix(-0.148859,0.988858,0.988858,0.148859,498.256,228.19)">
            <path d="M-76.811,-66.114L56.906,-66.114" style="fill:none;fill-rule:nonzero;stroke:white;stroke-width:4px;"/>
        </g>
        <g transform="matrix(0.963111,-0.269104,-0.269104,-0.963111,398.681,162.156)">
            <path d="M-0.926,6.754L49.267,6.754" style="fill:none;fill-rule:nonzero;stroke:white;stroke-width:4px;"/>
        </g>
        <g transform="matrix(-0.0294031,-0.999568,-0.999568,0.0294031,433.958,187.181)">
            <path d="M-37.338,36.256L35.205,36.256" style="fill:none;fill-rule:nonzero;stroke:white;stroke-width:4px;"/>
        </g>
        <g transform="matrix(-0.479907,0.877319,0.877319,0.479907,447.132,223.897)">
            <path d="M-70.152,-41.587L24.654,-41.587" style="fill:none;fill-rule:nonzero;stroke:white;stroke-width:4px;"/>
        </g>
        <g transform="matrix(0.545676,0.837996,0.837996,-0.545676,436.587,46.4984)">
            <path d="M-24.859,-45.853L84.575,-45.853" style="fill:none;fill-rule:nonzero;stroke:white;stroke-width:4px;"/>
        </g>
        <g transform="matrix(-0.107478,-0.994207,-0.994207,0.107478,441.975,91.9859)">
            <path d="M-58.6,52.607L47.226,52.607" style="fill:none;fill-rule:nonzero;stroke:white;stroke-width:4px;"/>
        </g>
        <g transform="matrix(1,0,0,1,215.403,50.6872)">
            <path d="M0,0L169.194,0" style="fill:none;fill-rule:nonzero;stroke:white;stroke-width:4px;"/>
        </g>
        <g transform="matrix(0,-1,-1,0,395.972,150.214)">
            <path d="M-5.687,-5.687C-2.546,-5.687 -0,-3.141 -0,-0C-0,3.141 -2.546,5.687 -5.687,5.687C-8.828,5.687 -11.374,3.141 -11.374,-0C-11.374,-3.141 -8.828,-5.687 -5.687,-5.687" style="fill:white;fill-rule:nonzero;stroke:white;stroke-width:0.14px;stroke-linejoin:round;stroke-miterlimit:2;"/>
        </g>
        <g transform="matrix(0,-1,-1,0,395.972,150.214)">
            <circle cx="-5.687" cy="0" r="5.687" style="fill:white;stroke:white;stroke-width:1px;"/>
        </g>
        <g transform="matrix(0,-1,-1,0,311.375,178.649)">
            <path d="M-5.687,-5.687C-2.546,-5.687 -0,-3.141 -0,-0C-0,3.141 -2.546,5.687 -5.687,5.687C-8.828,5.687 -11.374,3.141 -11.374,-0C-11.374,-3.141 -8.828,-5.687 -5.687,-5.687" style="fill:white;fill-rule:nonzero;stroke:white;stroke-width:0.14px;stroke-linejoin:round;stroke-miterlimit:2;"/>
        </g>
        <g transform="matrix(0,-1,-1,0,311.375,178.649)">
            <circle cx="-5.687" cy="0" r="5.687" style="fill:white;stroke:white;stroke-width:1px;"/>
        </g>
        <g transform="matrix(0,-1,-1,0,398.815,219.882)">
            <path d="M-5.687,-5.687C-2.546,-5.687 -0,-3.141 -0,-0C-0,3.141 -2.546,5.687 -5.687,5.687C-8.828,5.687 -11.374,3.141 -11.374,-0C-11.374,-3.141 -8.828,-5.687 -5.687,-5.687" style="fill:white;fill-rule:nonzero;stroke:white;stroke-width:0.14px;stroke-linejoin:round;stroke-miterlimit:2;"/>
        </g>
        <g transform="matrix(0,-1,-1,0,398.815,219.882)">
            <circle cx="-5.687" cy="0" r="5.687" style="fill:white;stroke:white;stroke-width:1px;"/>
        </g>
    </g>
</svg>
